# xmcd CD database file
#
# Track frame offsets:
#	183
#	15138
#	29285
#	44970
#	60613
#	76103
#	91300
#	108145
#	126195
#	154388
#	172453
#	190658
#	209460
#	224348
#	240865
#	260018
#	274040
#	290493
#
# Disc length: 4081 seconds
#
# Revision: 1
# Processed by: cddbd v1.5.1PL0 Copyright (c) Steve Scherf et al.
# Submitted via: CDex 1.51
#
DISCID=000fef12
DTITLE=Various Artist - Gefühle - Vol.20 - Die schönsten romantischen Schlage
DYEAR=1900
DGENRE=Oldies
TTITLE0=Brunner and Brunner - Eis im Vulkan
TTITLE1=Nadine Norell - Solang es Liebe gibt
TTITLE2=Mathias Reim - Küssen oder so
TTITLE3=G.G. Anderson - Weiße Rosen schenk ich dir
TTITLE4=Herman van Veen - Du oder Du
TTITLE5=Die Flippers - Schließ die Augen
TTITLE6=Andy Borg - Bleib bei mir heut' Nacht
TTITLE7=Randezvous - Zwei wie Feuer und Eis
TTITLE8=Waggershausen and Ofra Haza - Jenseits von Liebe
TTITLE9=Andreas Elsholz - Immer noch verrückt nach dir
TTITLE10=Nicole - Steh wie ein Mann zu mir
TTITLE11=Klaus Densow - Ich könnte tausendmal am Abend
TTITLE12=Kristina Bach - Du und ich (vielleicht ein Traum)
TTITLE13=Roland Kaiser - Südlich von mir
TTITLE14=Ireen Sheer and Bernhard Brink - Du gehst fort
TTITLE15=Tanja Jonak - Rote Sonne in der Nacht
TTITLE16=Howard Carpendale - Mandy
TTITLE17=Roger Whittaker - Du wirst alle Jahre schöner
EXTD=
EXTT0=
EXTT1=
EXTT2=
EXTT3=
EXTT4=
EXTT5=
EXTT6=
EXTT7=
EXTT8=
EXTT9=
EXTT10=
EXTT11=
EXTT12=
EXTT13=
EXTT14=
EXTT15=
EXTT16=
EXTT17=
PLAYORDER=
